# xmcd
#
# Track frame offsets:
#	150
#	20875
#	43225
#	65825
#	85475
#	103775
#	124350
#	140575
#	154075
#	179525
#	200900
#	220100
#	249525
#
# Disc length: 3571 seconds
#
# Revision: 0
# Processed by: cddbd v1.5.2PL0 Copyright (c) Steve Scherf et al.
# Submitted via: EasyCDDAExtractor 15.3.0.1
#
DISCID=d40df10d
DTITLE=Monica Naranjo - Minage
DYEAR=2000
DGENRE=Latin
TTITLE0=Ahora, Ahora
TTITLE1=Sobrevivire
TTITLE2=Perra Enamorada
TTITLE3=Enamorada (Version Spanglish)
TTITLE4=Que Imposible
TTITLE5=Amando Locamente
TTITLE6=If You Leave Me Now
TTITLE7=Inmensidad
TTITLE8=Abismo
TTITLE9=El Se Encuentra Entre Tu Y Yo (Duo Con Mina)
TTITLE10=Siempre Fuiste Mio
TTITLE11=Mi Vida Por Un Hombre
TTITLE12=Sobrevivire (The Groove Brothers Club Mix - Brian Rawling Remix) (Bon
TTITLE12=us Track)
EXTD=YEAR: 2000 ID3G: 13\n
EXTT0=
EXTT1=
EXTT2=
EXTT3=
EXTT4=
EXTT5=
EXTT6=
EXTT7=
EXTT8=
EXTT9=
EXTT10=
EXTT11=
EXTT12=
PLAYORDER=
